Coordinates
version=1
nRows=13
nColumns=40
inDegrees=yes

Units are S.I. units (second, meters, Newtons, ...)
Angles are in degrees.

endheader
time	pelvis_tilt	pelvis_list	pelvis_rotation	pelvis_tx	pelvis_ty	pelvis_tz	hip_flexion_r	hip_adduction_r	hip_rotation_r	knee_angle_r	knee_angle_r_beta	ankle_angle_r	subtalar_angle_r	mtp_angle_r	hip_flexion_l	hip_adduction_l	hip_rotation_l	knee_angle_l	knee_angle_l_beta	ankle_angle_l	subtalar_angle_l	mtp_angle_l	lumbar_extension	lumbar_bending	lumbar_rotation	arm_flex_r	arm_add_r	arm_rot_r	elbow_flex_r	pro_sup_r	wrist_flex_r	wrist_dev_r	arm_flex_l	arm_add_l	arm_rot_l	elbow_flex_l	pro_sup_l	wrist_flex_l	wrist_dev_l
     55.33000000	     -3.27700698	     -4.05701821	     -0.90798245	      0.79440316	      0.93348772	      0.39606993	     28.89886154	     -7.74134314	     -6.78497361	     65.87060508	     65.87060508	     -0.49958053	    -17.11899022	      2.70329578	     13.35856033	     -3.23676821	     -7.37832776	     21.70386989	     21.70386989	     14.03298880	    -10.46220716	      2.36356210	     -9.67489035	      5.15634556	      2.37678980	      9.79590435	    -12.44344373	     -0.84169164	     31.11927032	     45.57946260	      0.00000000	      0.00000000	     14.78619749	    -15.09052107	     -9.70709755	     59.86666015	     45.76122509	      0.00000000	      0.00000000
     55.34342857	     -3.43240096	     -4.17160630	     -1.12088149	      0.79332523	      0.93401516	      0.39548709	     29.87020452	     -7.34967358	     -7.02367571	     64.16925578	     64.16925578	     -0.03391847	    -16.90130832	      2.47046861	     12.70311443	     -3.31944572	     -7.69678718	     21.03220089	     21.03220089	     14.24031039	    -10.01740159	      2.27429743	     -9.64003064	      5.22279877	      2.42386745	      7.76055690	    -12.61249035	     -0.83996585	     30.05218496	     45.61484872	      0.00000000	      0.00000000	     15.56263424	    -15.30321346	    -10.09268410	     61.00678038	     45.83140346	      0.00000000	      0.00000000
     55.35685714	     -3.62106763	     -4.17430867	     -1.31134232	      0.79210918	      0.93423423	      0.39483072	     30.80226375	     -7.04255484	     -7.17396626	     62.31543394	     62.31543394	      0.52336988	    -16.59789601	      2.42964116	     12.31599865	     -3.27825047	     -7.92042652	     20.76786932	     20.76786932	     14.44447736	     -9.93123249	      2.20307772	     -9.52026933	      5.21991617	      1.88142287	      6.10666785	    -12.65663815	     -0.83488432	     29.42355703	     45.62858425	      0.00000000	      0.00000000	     16.23255573	    -15.95796027	    -10.38669850	     61.49125667	     45.86931146	      0.00000000	      0.00000000
     55.37028571	     -3.66613075	     -4.38056631	     -1.52145782	      0.79126346	      0.93496702	      0.39436332	     31.32731252	     -6.52940366	     -7.50941573	     60.06802649	     60.06802649	      0.81314644	    -16.31526441	      2.17068029	     11.32300377	     -3.45879712	     -8.36564817	     19.69932447	     19.69932447	     14.57831136	     -9.07757399	      1.99681059	     -9.70928543	      5.39220041	      2.64024905	      3.64720858	    -12.95163315	     -0.77559176	     28.05287904	     45.67074365	      0.00000000	      0.00000000	     17.06034014	    -15.63389213	    -10.99903031	     63.66159653	     45.97142244	      0.00000000	      0.00000000
     55.38371429	     -3.77021701	     -4.46535835	     -1.72003081	      0.79027724	      0.93528359	      0.39394633	     31.83963174	     -6.12128264	     -7.75852325	     57.63980437	     57.63980437	      1.12440169	    -15.94088278	      1.89170480	     10.64011796	     -3.52616121	     -8.80590544	     19.05771471	     19.05771471	     14.73907827	     -8.50658209	      1.64314159	     -9.75159498	      5.44462732	      2.65036282	      1.72320959	    -13.07151531	     -0.79739901	     27.12834505	     45.70517061	      0.00000000	      0.00000000	     17.56204067	    -15.77188428	    -11.66349431	     65.35953994	     46.07120504	      0.00000000	      0.00000000
     55.39714286	     -3.90421502	     -4.49217313	     -1.90601368	      0.78932215	      0.93541991	      0.39361968	     32.26072472	     -5.76242133	     -7.98481504	     54.95402366	     54.95402366	      1.33197821	    -15.51403102	      1.39159305	     10.02365346	     -3.54687798	     -9.27584722	     18.46374034	     18.46374034	     14.80844089	     -7.86678134	      1.08724406	     -9.77147677	      5.42690980	      2.44591210	     -0.04497029	    -13.11236426	     -0.90296890	     26.36305335	     45.74827413	      0.00000000	      0.00000000	     17.77553821	    -15.97778546	    -12.61364228	     67.30592002	     46.20960717	      0.00000000	      0.00000000
     55.41057143	     -4.08817784	     -4.58451579	     -2.03539493	      0.78838041	      0.93538259	      0.39338543	     32.58480903	     -5.34524231	     -8.26865624	     52.00816425	     52.00816425	      1.74367901	    -14.86192262	      1.38745121	      9.49664171	     -3.59950874	     -9.46077233	     17.91037119	     17.91037119	     14.98652070	     -7.54626084	      0.93303405	     -9.65216277	      5.54885571	      2.13776696	     -1.71936815	    -13.21039029	     -0.94684230	     25.76554412	     45.76826957	      0.00000000	      0.00000000	     18.14938940	    -16.30655405	    -13.03451191	     68.13479678	     46.26630638	      0.00000000	      0.00000000
     55.42400000	     -4.17148133	     -4.50711395	     -2.23275763	      0.78740681	      0.93531768	      0.39339248	     32.70943027	     -5.06528886	     -8.44975690	     48.79801360	     48.79801360	      1.85067213	    -14.13897341	      0.59694662	      8.85377456	     -3.54104854	    -10.08893336	     17.34441568	     17.34441568	     15.05469298	     -6.78271513	      0.28807965	     -9.80002418	      5.33094923	      2.01818833	     -3.49745857	    -13.26259136	     -1.22544915	     25.47228795	     45.80929776	      0.00000000	      0.00000000	     18.28873160	    -16.36728746	    -14.08853076	     70.18545308	     46.41908619	      0.00000000	      0.00000000
     55.43742857	     -4.31503693	     -4.56218115	     -2.32299159	      0.78645602	      0.93516937	      0.39333214	     32.67767099	     -4.70178139	     -8.83595731	     45.23741646	     45.23741646	      2.12277130	    -13.11020486	      0.58689386	      8.34880527	     -3.56919452	    -10.30335819	     16.89217739	     16.89217739	     15.21269677	     -6.48316548	      0.11803044	     -9.77950204	      5.42833982	      1.71639509	     -5.02604780	    -13.37738690	     -1.33604213	     25.09698538	     45.82746166	      0.00000000	      0.00000000	     18.52390142	    -16.63856570	    -14.45619515	     70.88012007	     46.47066620	      0.00000000	      0.00000000
     55.45085714	     -4.48272306	     -4.53527078	     -2.42910085	      0.78552081	      0.93472165	      0.39357866	     32.59877800	     -4.36413211	     -9.12660868	     41.54504980	     41.54504980	      2.42484361	    -11.85724476	      0.50942777	      7.88270544	     -3.53598466	    -10.55184509	     16.46927970	     16.46927970	     15.42732411	     -6.05834307	     -0.13284062	     -9.73126520	      5.26932891	      1.49115298	     -6.56128856	    -13.43619292	     -1.48003548	     24.84353260	     45.84201261	      0.00000000	      0.00000000	     18.76104715	    -16.83825324	    -14.83153199	     71.67405320	     46.52308504	      0.00000000	      0.00000000
     55.46428571	     -4.54289066	     -4.44821133	     -2.51898247	      0.78471632	      0.93429028	      0.39381173	     32.22400020	     -4.12517557	     -9.52730938	     37.61287273	     37.61287273	      2.61631308	    -10.24451890	      0.17530784	      7.30477369	     -3.45801117	    -10.96357791	     16.07764958	     16.07764958	     15.64262936	     -5.44285360	     -0.52758118	     -9.82022156	      5.13034545	      1.33518855	     -8.10215258	    -13.47829175	     -1.76832926	     24.90947694	     45.85711228	      0.00000000	      0.00000000	     18.92479651	    -16.94555187	    -15.31404909	     72.70293900	     46.59368331	      0.00000000	      0.00000000
     55.47771429	     -4.81575226	     -4.42164498	     -2.57960158	      0.78389166	      0.93345834	      0.39427530	     31.94441437	     -3.75518729	     -9.92669499	     33.54546014	     33.54546014	      2.70459651	     -8.69310189	      0.37797197	      7.00116221	     -3.44439966	    -11.14391598	     15.75101004	     15.75101004	     15.86465682	     -5.09272516	     -0.78580003	     -9.60660015	      5.04034967	      1.05854229	     -9.44125504	    -13.45955606	     -1.93986862	     24.83600837	     45.86591412	      0.00000000	      0.00000000	     18.97423394	    -17.12335994	    -15.56477016	     73.21530682	     46.62886803	      0.00000000	      0.00000000
     55.49114286	     -4.79982468	     -4.32862425	     -2.59886894	      0.78337926	      0.93278985	      0.39475029	     31.14862789	     -3.53739591	    -10.63217457	     29.32834146	     29.32834146	      2.23938704	     -6.70240316	     -1.04561647	      6.34328564	     -3.39576250	    -11.64004790	     15.39302709	     15.39302709	     16.01433179	     -4.26682475	     -1.71191796	     -9.80309213	      4.86272278	      0.95858829	    -11.32673736	    -13.43202766	     -3.54009266	     26.45405464	     45.95261851	      0.00000000	      0.00000000	     18.96735649	    -17.01051630	    -16.13722812	     74.29388754	     46.81565778	      0.00000000	      0.00000000
